<svg width="283" height="451" viewBox="0 0 283 451" fill="none" xmlns="http://www.w3.org/2000/svg">
<mask id="path-1-inside-1_301_13667" fill="white">
<path d="M91.5577 152.243C90.1965 151.755 88.692 152.462 88.2589 153.842C85.3618 163.069 84.5443 172.836 85.8793 182.437C87.3347 192.904 91.3047 202.862 97.4496 211.459C103.595 220.056 111.731 227.035 121.163 231.801C130.595 236.566 141.041 238.974 151.607 238.82C162.174 238.666 172.545 235.953 181.834 230.915C191.123 225.876 199.052 218.662 204.943 209.889C210.835 201.116 214.512 191.046 215.661 180.542C216.715 170.906 215.613 161.167 212.448 152.028C211.975 150.662 210.45 149.999 209.104 150.527C207.757 151.054 207.099 152.572 207.568 153.94C210.427 162.29 211.418 171.178 210.456 179.972C209.399 189.636 206.015 198.899 200.596 206.969C195.176 215.04 187.882 221.676 179.337 226.311C170.792 230.947 161.251 233.442 151.531 233.584C141.811 233.726 132.201 231.51 123.525 227.126C114.848 222.743 107.363 216.322 101.71 208.413C96.0571 200.505 92.4049 191.344 91.0661 181.716C89.8476 172.953 90.5783 164.04 93.1927 155.61C93.621 154.229 92.919 152.731 91.5577 152.243Z"/>
</mask>
<path d="M91.5577 152.243C90.1965 151.755 88.692 152.462 88.2589 153.842C85.3618 163.069 84.5443 172.836 85.8793 182.437C87.3347 192.904 91.3047 202.862 97.4496 211.459C103.595 220.056 111.731 227.035 121.163 231.801C130.595 236.566 141.041 238.974 151.607 238.82C162.174 238.666 172.545 235.953 181.834 230.915C191.123 225.876 199.052 218.662 204.943 209.889C210.835 201.116 214.512 191.046 215.661 180.542C216.715 170.906 215.613 161.167 212.448 152.028C211.975 150.662 210.45 149.999 209.104 150.527C207.757 151.054 207.099 152.572 207.568 153.94C210.427 162.29 211.418 171.178 210.456 179.972C209.399 189.636 206.015 198.899 200.596 206.969C195.176 215.04 187.882 221.676 179.337 226.311C170.792 230.947 161.251 233.442 151.531 233.584C141.811 233.726 132.201 231.51 123.525 227.126C114.848 222.743 107.363 216.322 101.71 208.413C96.0571 200.505 92.4049 191.344 91.0661 181.716C89.8476 172.953 90.5783 164.04 93.1927 155.61C93.621 154.229 92.919 152.731 91.5577 152.243Z" fill="#697289"/>
<path d="M85.8793 182.437L61.1175 185.88L85.8793 182.437ZM215.661 180.542L240.513 183.26L215.661 180.542ZM210.456 179.972L185.604 177.254L210.456 179.972ZM91.0661 181.716L115.828 178.273L91.0661 181.716ZM93.1927 155.61L117.071 163.016L93.1927 155.61ZM207.568 153.94L231.219 145.841L231.219 145.841L207.568 153.94ZM212.448 152.028L188.825 160.21L188.825 160.21L212.448 152.028ZM88.2589 153.842L64.4068 146.353L64.4068 146.353L88.2589 153.842ZM64.4068 146.353C60.4021 159.108 59.2722 172.609 61.1175 185.88L110.641 178.994C109.816 173.063 110.321 167.03 112.111 161.33L64.4068 146.353ZM61.1175 185.88C63.1292 200.348 68.617 214.113 77.111 225.996L117.788 196.921C113.992 191.611 111.54 185.459 110.641 178.994L61.1175 185.88ZM77.111 225.996C85.605 237.88 96.8523 247.528 109.89 254.114L132.437 209.487C126.61 206.543 121.584 202.232 117.788 196.921L77.111 225.996ZM109.89 254.114C122.927 260.701 137.367 264.031 151.973 263.817L151.242 213.823C144.716 213.918 138.263 212.43 132.437 209.487L109.89 254.114ZM151.973 263.817C166.578 263.604 180.914 259.854 193.754 252.89L169.914 208.939C164.176 212.052 157.769 213.727 151.242 213.823L151.973 263.817ZM193.754 252.89C206.594 245.925 217.554 235.953 225.698 223.826L184.189 195.951C180.55 201.37 175.652 205.827 169.914 208.939L193.754 252.89ZM225.698 223.826C233.841 211.7 238.925 197.781 240.513 183.26L190.81 177.823C190.1 184.312 187.828 190.532 184.189 195.951L225.698 223.826ZM240.513 183.26C241.97 169.941 240.446 156.479 236.071 143.846L188.825 160.21C190.78 165.855 191.461 171.871 190.81 177.823L240.513 183.26ZM183.916 162.04C185.587 166.919 186.166 172.114 185.604 177.254L235.307 182.691C236.669 170.241 235.267 157.66 231.219 145.841L183.916 162.04ZM185.604 177.254C184.986 182.901 183.009 188.315 179.841 193.032L221.35 220.907C229.022 209.483 233.811 196.37 235.307 182.691L185.604 177.254ZM179.841 193.032C176.674 197.749 172.411 201.627 167.417 204.336L191.257 248.287C203.353 241.726 213.679 232.331 221.35 220.907L179.841 193.032ZM167.417 204.336C162.423 207.045 156.847 208.503 151.166 208.586L151.896 258.581C165.655 258.38 179.161 254.848 191.257 248.287L167.417 204.336ZM151.166 208.586C145.485 208.669 139.869 207.374 134.798 204.813L112.251 249.44C124.534 255.646 138.137 258.782 151.896 258.581L151.166 208.586ZM134.798 204.813C129.727 202.251 125.352 198.498 122.049 193.876L81.3713 222.951C89.3732 234.146 99.9689 243.235 112.251 249.44L134.798 204.813ZM122.049 193.876C118.745 189.254 116.61 183.9 115.828 178.273L66.3043 185.159C68.1995 198.789 73.3694 211.756 81.3713 222.951L122.049 193.876ZM115.828 178.273C115.116 173.151 115.543 167.942 117.071 163.016L69.3146 148.205C65.6138 160.138 64.5795 172.754 66.3043 185.159L115.828 178.273ZM117.071 163.016C121.256 149.52 114.604 133.948 99.995 128.71L83.1205 175.777C71.234 171.515 65.9858 158.938 69.3146 148.205L117.071 163.016ZM199.983 127.25C185.533 132.912 179.338 148.672 183.916 162.04L231.219 145.841C234.86 156.472 229.981 169.197 218.224 173.804L199.983 127.25ZM236.071 143.846C230.735 128.439 213.928 121.786 199.983 127.25L218.224 173.804C206.972 178.213 193.214 172.884 188.825 160.21L236.071 143.846ZM112.111 161.33C108.093 174.127 94.4971 179.855 83.1205 175.777L99.995 128.71C85.8959 123.655 69.2908 130.797 64.4068 146.353L112.111 161.33Z" fill="#697289" mask="url(#path-1-inside-1_301_13667)"/>
<path fill-rule="evenodd" clip-rule="evenodd" d="M218.677 137.07C217.344 136.43 210.275 133.298 210.314 139.954V147.876L209.526 145.656L209.022 147.721C208.615 149.329 207.497 150.807 205.932 151.353L207.963 157.17C208.494 158.981 208.938 160.813 209.295 162.661C207.172 156.134 204.033 149.975 199.989 144.417C199.702 144.022 199.41 143.63 199.114 143.242C199.068 143.182 199.022 143.121 198.976 143.061C198.935 143.008 198.893 142.958 198.849 142.909L194.385 137.185L194.559 139.303C194.681 140.957 194.087 142.713 192.775 143.725L196.54 148.603C201.046 155.101 204.238 162.439 205.913 170.204C207.934 179.576 207.686 189.293 205.192 198.546C203.788 201.7 202.111 204.738 200.173 207.623L204.521 210.543C206.698 207.301 208.573 203.881 210.129 200.329L210.133 200.33C210.136 200.321 210.138 200.312 210.141 200.303C212.79 194.249 214.515 187.809 215.239 181.196C215.802 176.041 215.749 170.858 215.094 165.753L215.136 165.752L215.136 139.51C215.136 139.51 214.927 136.052 218.677 137.788V137.07Z" fill="#697289"/>
<path fill-rule="evenodd" clip-rule="evenodd" d="M82.6771 137.07C84.01 136.43 91.0794 133.298 91.0402 139.954L91.0402 147.876L91.8276 145.656L92.3322 147.721C92.7392 149.329 93.8571 150.807 95.4214 151.353L93.3906 157.17C92.86 158.982 92.4156 160.814 92.0581 162.663C94.1813 156.134 97.3209 149.976 101.365 144.417C101.652 144.022 101.944 143.63 102.24 143.242C102.286 143.182 102.332 143.121 102.378 143.061C102.419 143.008 102.461 142.958 102.505 142.909L106.969 137.185L106.795 139.303C106.673 140.957 107.267 142.713 108.579 143.725L104.814 148.603C100.308 155.101 97.1159 162.439 95.4412 170.204C93.4196 179.576 93.6678 189.294 96.1626 198.548C97.5662 201.701 99.2433 204.738 101.181 207.623L96.8332 210.543C94.656 207.301 92.7812 203.881 91.2246 200.329L91.2209 200.33C91.2185 200.321 91.2161 200.313 91.2138 200.304C88.5644 194.25 86.8386 187.809 86.1152 181.196C85.5513 176.041 85.6045 170.858 86.2603 165.753L86.2184 165.752L86.2184 139.51C86.2184 139.51 86.4274 136.052 82.6771 137.788L82.6771 137.07Z" fill="#697289"/>
<rect x="155.26" y="125.932" width="6.64758" height="6.64758" transform="rotate(-45 155.26 125.932)" fill="#697289"/>
<rect x="131.91" y="163.348" width="3.44471" height="3.44471" transform="rotate(-135 131.91 163.348)" fill="#697289"/>
<rect x="169.38" y="163.348" width="3.44471" height="3.44471" transform="rotate(-135 169.38 163.348)" fill="#697289"/>
<rect x="150.672" y="144.645" width="3.44471" height="3.44471" transform="rotate(135 150.672 144.645)" fill="#697289"/>
<rect x="153.008" y="153.551" width="3.44471" height="3.44471" transform="rotate(135 153.008 153.551)" fill="#697289"/>
<rect x="153.008" y="173.285" width="3.44471" height="3.44471" transform="rotate(135 153.008 173.285)" fill="#697289"/>
<rect x="150.672" y="182.02" width="3.44471" height="3.44471" transform="rotate(135 150.672 182.02)" fill="#697289"/>
<rect x="155.26" y="200.666" width="6.64758" height="6.64758" transform="rotate(-45 155.26 200.666)" fill="#697289"/>
<rect x="187.985" y="158.645" width="6.64758" height="6.64758" transform="rotate(-135 187.985 158.645)" fill="#697289"/>
<rect x="113.285" y="158.645" width="6.64758" height="6.64758" transform="rotate(-135 113.285 158.645)" fill="#697289"/>
<rect x="136.506" y="125.932" width="6.64758" height="6.64758" transform="rotate(-45 136.506 125.932)" fill="#697289"/>
<rect x="131.91" y="168.189" width="3.44471" height="3.44471" transform="rotate(-135 131.91 168.189)" fill="#697289"/>
<rect x="140.834" y="165.785" width="3.44471" height="3.44471" transform="rotate(-135 140.834 165.785)" fill="#697289"/>
<rect x="160.394" y="165.785" width="3.44471" height="3.44471" transform="rotate(-135 160.394 165.785)" fill="#697289"/>
<rect x="169.38" y="168.189" width="3.44471" height="3.44471" transform="rotate(-135 169.38 168.189)" fill="#697289"/>
<rect x="155.512" y="144.645" width="3.44471" height="3.44471" transform="rotate(135 155.512 144.645)" fill="#697289"/>
<rect x="155.512" y="182.02" width="3.44471" height="3.44471" transform="rotate(135 155.512 182.02)" fill="#697289"/>
<rect x="136.506" y="200.666" width="6.64758" height="6.64758" transform="rotate(-45 136.506 200.666)" fill="#697289"/>
<rect x="187.985" y="177.395" width="6.64758" height="6.64758" transform="rotate(-135 187.985 177.395)" fill="#697289"/>
<rect x="113.285" y="177.395" width="6.64758" height="6.64758" transform="rotate(-135 113.285 177.395)" fill="#697289"/>
<rect x="122.582" y="121.27" width="32.9948" height="19.8434" transform="rotate(45.0314 122.582 121.27)" fill="#697289"/>
<rect x="142.386" y="147.754" width="8.17089" height="10.3376" transform="rotate(45.0314 142.386 147.754)" fill="#697289"/>
<rect x="145.517" y="155.803" width="3.70514" height="3.43445" transform="rotate(45.0314 145.517 155.803)" fill="#697289"/>
<rect x="178.646" y="205.389" width="32.9948" height="19.8434" transform="rotate(-134.969 178.646 205.389)" fill="#697289"/>
<rect x="158.841" y="178.902" width="8.17089" height="10.3376" transform="rotate(-134.969 158.841 178.902)" fill="#697289"/>
<rect x="155.71" y="170.85" width="3.70514" height="3.43445" transform="rotate(-134.969 155.71 170.85)" fill="#697289"/>
<rect width="32.9948" height="19.8434" transform="matrix(-0.706719 0.707494 0.707494 0.706719 178.646 121.27)" fill="#697289"/>
<rect width="8.17089" height="10.3376" transform="matrix(-0.706719 0.707494 0.707494 0.706719 158.841 147.756)" fill="#697289"/>
<rect width="3.70514" height="3.43445" transform="matrix(-0.706719 0.707494 0.707494 0.706719 155.71 155.809)" fill="#697289"/>
<rect width="32.9948" height="19.8434" transform="matrix(0.706719 -0.707494 -0.707494 -0.706719 122.582 205.389)" fill="#697289"/>
<rect width="8.17089" height="10.3376" transform="matrix(0.706719 -0.707494 -0.707494 -0.706719 142.386 178.902)" fill="#697289"/>
<rect width="3.70514" height="3.43445" transform="matrix(0.706719 -0.707494 -0.707494 -0.706719 145.518 170.85)" fill="#697289"/>
<rect x="150.645" y="168.189" width="6.64758" height="6.64758" transform="rotate(-135 150.645 168.189)" fill="#646D84"/>
<path d="M123.119 149.934L100.708 127.518L106.184 128.684C110.463 129.559 115.248 128.599 118.334 125.514L133.837 141.022L123.119 149.934Z" fill="#697289"/>
<path d="M178.055 176.625L200.465 199.041L194.989 197.874C190.71 197 185.925 197.96 182.839 201.045L167.336 185.536L178.055 176.625Z" fill="#697289"/>
<path d="M178.055 149.934L200.465 127.518L194.989 128.684C190.71 129.559 185.925 128.599 182.839 125.514L167.336 141.022L178.055 149.934Z" fill="#697289"/>
<path d="M123.119 176.625L100.708 199.041L106.184 197.874C110.463 197 115.248 197.96 118.334 201.045L133.837 185.536L123.119 176.625Z" fill="#697289"/>
<path d="M169.307 163.061L185.591 163.082L184.72 162.517C184.045 162.07 183.543 161.317 183.543 160.508L169.307 160.508L169.307 163.061Z" fill="#697289"/>
<path d="M169.307 163.769L189.975 163.748L189.105 164.313C188.429 164.76 187.927 165.513 187.927 166.322L169.307 166.322L169.307 163.769Z" fill="#697289"/>
<path d="M131.837 163.057L115.553 163.078L116.423 162.513C117.099 162.066 117.601 161.313 117.601 160.504L131.837 160.504L131.837 163.057Z" fill="#697289"/>
<path d="M131.837 163.767L111.168 163.747L112.039 164.312C112.715 164.758 113.216 165.511 113.216 166.32L131.837 166.32L131.837 163.767Z" fill="#697289"/>
<path d="M150.996 182.151L150.976 198.436L151.541 197.565C151.987 196.889 152.74 196.388 153.549 196.388L153.549 182.151L150.996 182.151Z" fill="#697289"/>
<path d="M150.294 182.155L150.314 202.824L149.749 201.953C149.303 201.278 148.55 200.776 147.741 200.776L147.741 182.155L150.294 182.155Z" fill="#697289"/>
<path d="M150.996 144.677L150.976 128.393L151.541 129.263C151.987 129.939 152.74 130.441 153.549 130.441L153.549 144.677L150.996 144.677Z" fill="#697289"/>
<path d="M150.293 144.679L150.314 124.01L149.749 124.881C149.303 125.556 148.549 126.058 147.74 126.058L147.74 144.679L150.293 144.679Z" fill="#697289"/>
<path d="M192.581 122.311C191.94 120.488 188.299 111.056 182.182 117.245L154.783 144.645L157.269 144.115C159.213 143.718 161.386 144.154 162.788 145.556L187.05 121.293C187.05 121.293 190.054 117.903 191.917 122.975L192.581 122.311Z" fill="#697289"/>
<path d="M108.333 204.353C108.974 206.177 112.614 215.608 118.731 209.419L146.131 182.019L143.644 182.549C141.7 182.946 139.527 182.51 138.125 181.108L113.863 205.371C113.863 205.371 110.859 208.762 108.996 203.689L108.333 204.353Z" fill="#697289"/>
<path d="M108.332 122.313C108.974 120.49 112.614 111.058 118.731 117.248L138.536 137.053L136.05 136.523C134.106 136.126 131.932 136.562 130.531 137.964L113.863 121.296C113.863 121.296 110.859 117.905 108.996 122.977L108.332 122.313Z" fill="#697289"/>
<path d="M192.581 204.353C191.94 206.177 188.299 215.608 182.182 209.419L154.783 182.019L157.269 182.549C159.213 182.946 161.386 182.51 162.788 181.108L187.05 205.371C187.05 205.371 190.054 208.762 191.917 203.689L192.581 204.353Z" fill="#697289"/>
<path fill-rule="evenodd" clip-rule="evenodd" d="M114.139 125.456L147.905 159.222L146.491 160.637L112.724 126.87L114.139 125.456Z" fill="#0E1424"/>
<path fill-rule="evenodd" clip-rule="evenodd" d="M187.278 201.376L153.511 167.61L154.926 166.195L188.692 199.962L187.278 201.376Z" fill="#0E1424"/>
<path fill-rule="evenodd" clip-rule="evenodd" d="M186.944 125.595L153.461 159.078L154.875 160.492L188.358 127.009L186.944 125.595Z" fill="#0E1424"/>
<path fill-rule="evenodd" clip-rule="evenodd" d="M113.992 201.231L147.604 167.62L146.19 166.205L112.578 199.817L113.992 201.231Z" fill="#0E1424"/>
<path fill-rule="evenodd" clip-rule="evenodd" d="M101.485 144.212C96.1233 152.196 92.7764 161.36 91.7306 170.92L90.4504 170.78C91.5188 161.013 94.9381 151.65 100.416 143.494L101.485 144.212ZM209.842 169.195C208.518 159.67 204.905 150.607 199.312 142.783L200.36 142.034C206.073 150.028 209.765 159.286 211.118 169.018L209.842 169.195Z" fill="#0E1424"/>
<path fill-rule="evenodd" clip-rule="evenodd" d="M101.485 188.104C96.1233 196.088 92.7764 205.252 91.7306 214.812L90.4504 214.672C91.5188 204.906 94.9381 195.543 100.416 187.386L101.485 188.104ZM209.842 213.088C208.518 203.562 204.905 194.5 199.312 186.676L200.36 185.927C206.073 193.92 209.765 203.179 211.118 212.91L209.842 213.088Z" fill="#0E1424"/>
<path fill-rule="evenodd" clip-rule="evenodd" d="M95.712 141.452C89.7478 150.333 86.0246 160.527 84.8612 171.162L83.5811 171.022C84.767 160.18 88.5626 149.788 94.6428 140.734L95.712 141.452ZM216.25 169.243C214.777 158.647 210.758 148.566 204.537 139.862L205.584 139.114C211.926 147.986 216.024 158.264 217.526 169.066L216.25 169.243Z" fill="#0E1424"/>
<path d="M137.19 118.13L87.8954 68.7657L88.4216 71.2367C88.8162 73.1678 88.3829 75.3274 86.9905 76.7199L132.796 122.524L137.19 118.13Z" fill="#38425A"/>
<path d="M154.49 98.6643L87.8954 32.0001L88.4216 34.471C88.8162 36.4022 88.3829 38.5618 86.9905 39.9543L150.096 103.058L154.49 98.6643Z" fill="#38425A"/>
<path d="M163.802 118.122L213.096 68.7579L212.57 71.2288C212.176 73.16 212.609 75.3196 214.001 76.7121L168.196 122.516L163.802 118.122Z" fill="#38425A"/>
<path d="M145.942 99.0217L212.341 32.5529L211.815 35.0238C211.42 36.9549 211.854 39.1146 213.246 40.5071L150.336 103.415L145.942 99.0217Z" fill="#38425A"/>
<rect width="6.64758" height="54.0382" transform="matrix(0.707107 -0.707107 -0.707107 -0.707107 137.115 118.086)" fill="#697289"/>
<rect x="163.877" y="118.086" width="6.64758" height="54.0382" transform="rotate(-135 163.877 118.086)" fill="#697289"/>
<rect x="150.493" y="112.682" width="6.64758" height="80.0985" transform="rotate(-135 150.493 112.682)" fill="#697289"/>
<rect width="6.64758" height="80.0985" transform="matrix(0.707107 -0.707107 -0.707107 -0.707107 150.314 112.682)" fill="#697289"/>
<path d="M149.979 5.01051C150.018 -1.64509 142.949 1.48696 141.616 2.12642V2.84418C145.367 1.1085 145.157 4.5668 145.157 4.5668L145.157 23.3947C146.4 19.3942 148.014 15.5138 149.979 11.8051L149.979 5.01051Z" fill="#697289"/>
<path d="M144.818 47.4931C144.029 41.8159 143.992 36.0809 144.693 30.4336C145.957 24.1136 148.136 18.0132 151.161 12.3258L151.271 12.7776C151.678 14.3853 152.796 15.8635 154.361 16.4097L152.33 22.2266C152.065 23.1298 151.822 24.0384 151.6 24.9516C150.537 28.4922 149.794 32.1344 149.39 35.8346L150.67 35.9747C151.693 26.6203 154.92 17.6449 160.081 9.78348C160.155 9.68035 160.229 9.57743 160.304 9.47471C160.591 9.08007 160.883 8.68846 161.179 8.29995C161.225 8.23955 161.271 8.17922 161.317 8.11898C161.358 8.06626 161.4 8.01565 161.444 7.96717L165.908 2.24279L165.734 4.36133C165.612 6.01531 166.206 7.77095 167.518 8.78331L163.753 13.6609C159.247 20.1591 156.055 27.4974 154.38 35.2617C152.537 43.8078 152.581 52.6412 154.494 61.148C153.369 63.6198 152.411 66.1638 151.626 68.7627C148.164 62.1355 145.854 54.9431 144.818 47.4931Z" fill="#697289"/>
<circle cx="150.677" cy="161.802" r="38.4734" stroke="#697289"/>
<path d="M273.456 388.646C274.451 388.646 275.322 388.682 276.068 388.753C276.814 388.824 277.454 388.913 277.987 389.02C278.555 389.091 279.035 389.197 279.426 389.339C279.852 389.446 280.225 389.553 280.545 389.659L280.598 394.936H279.959C279.959 393.479 279.461 392.342 278.466 391.525C277.471 390.672 275.926 390.246 273.829 390.246C272.052 390.246 270.524 390.743 269.245 391.738C268.001 392.697 267.397 393.888 267.433 395.309C267.433 395.771 267.486 396.251 267.593 396.748C267.735 397.21 267.948 397.672 268.232 398.134C268.552 398.596 268.979 399.058 269.512 399.52L280.279 407.835C281.096 408.51 281.7 409.381 282.091 410.447C282.482 411.477 282.695 412.508 282.731 413.538C282.766 415.102 282.357 416.541 281.505 417.856C280.652 419.171 279.497 420.219 278.04 421.001C276.619 421.747 275.037 422.12 273.296 422.12C272.266 422.12 271.146 422.031 269.938 421.854C268.765 421.676 267.664 421.409 266.633 421.054C265.603 420.663 264.75 420.183 264.075 419.615C263.968 419.117 263.915 418.496 263.915 417.749C263.915 416.968 263.968 416.15 264.075 415.297C264.217 414.445 264.395 413.681 264.608 413.005H265.248C265.105 414.605 265.336 415.973 265.94 417.11C266.545 418.247 267.433 419.117 268.606 419.722C269.778 420.29 271.146 420.557 272.71 420.521C274.913 420.45 276.636 419.899 277.88 418.869C279.159 417.803 279.799 416.399 279.799 414.658C279.799 413.805 279.639 413.041 279.319 412.366C279.035 411.655 278.555 410.998 277.88 410.394L267.22 402.185C266.225 401.332 265.55 400.391 265.194 399.36C264.839 398.33 264.661 397.352 264.661 396.429C264.661 394.972 265.052 393.657 265.834 392.484C266.616 391.312 267.664 390.388 268.979 389.713C270.329 389.002 271.821 388.646 273.456 388.646ZM280.492 389.126L280.545 390.086H276.761V389.126H280.492Z" fill="#697289"/>
<path d="M251.393 388.646L251.873 392.111L239.4 416.683C239.4 416.683 239.258 416.985 238.973 417.589C238.725 418.194 238.458 418.922 238.174 419.775C237.89 420.592 237.676 421.374 237.534 422.12H237.001L236.255 418.762L251.393 388.646ZM220.158 417.803V421.374H214.615V420.841C214.615 420.841 214.739 420.841 214.988 420.841C215.272 420.841 215.414 420.841 215.414 420.841C216.338 420.841 217.137 420.574 217.813 420.041C218.523 419.508 218.932 418.762 219.039 417.803H220.158ZM221.757 418.602C221.721 419.135 221.846 419.65 222.13 420.148C222.414 420.61 222.947 420.859 223.729 420.894H224.475V421.374H221.437V418.602H221.757ZM223.196 388.646H223.729L224.795 391.791L221.49 421.374H218.559L223.196 388.646ZM223.729 388.646L238.227 416.523L237.001 422.12L222.716 394.51L223.729 388.646ZM251.873 388.646L256.67 421.374H252.619L249.154 394.563L251.393 388.646H251.873ZM255.071 417.803H256.137C256.279 418.762 256.705 419.508 257.416 420.041C258.127 420.574 258.926 420.841 259.815 420.841C259.815 420.841 259.939 420.841 260.188 420.841C260.472 420.841 260.614 420.841 260.614 420.841V421.374H255.071V417.803ZM252.246 418.602H252.619V421.374H249.527V420.894H250.327C251.144 420.859 251.677 420.592 251.926 420.095C252.21 419.597 252.317 419.1 252.246 418.602Z" fill="#697289"/>
<path d="M194.059 388.646C196.546 388.646 198.874 389.055 201.041 389.872C203.244 390.654 205.163 391.791 206.798 393.284C208.468 394.776 209.765 396.553 210.689 398.614C211.613 400.639 212.075 402.896 212.075 405.383C212.075 407.871 211.613 410.145 210.689 412.206C209.765 414.231 208.468 415.99 206.798 417.483C205.163 418.975 203.244 420.13 201.041 420.947C198.874 421.729 196.546 422.12 194.059 422.12C191.571 422.12 189.244 421.729 187.076 420.947C184.908 420.13 182.99 418.975 181.319 417.483C179.685 415.99 178.406 414.231 177.482 412.206C176.558 410.145 176.096 407.871 176.096 405.383C176.096 402.896 176.558 400.639 177.482 398.614C178.406 396.553 179.685 394.776 181.319 393.284C182.99 391.791 184.908 390.654 187.076 389.872C189.244 389.055 191.571 388.646 194.059 388.646ZM194.059 420.521C196.688 420.521 199.069 419.881 201.201 418.602C203.333 417.323 205.021 415.546 206.265 413.272C207.508 410.998 208.13 408.368 208.13 405.383C208.13 402.363 207.508 399.733 206.265 397.495C205.021 395.22 203.333 393.444 201.201 392.164C199.069 390.885 196.688 390.246 194.059 390.246C191.465 390.246 189.102 390.885 186.969 392.164C184.837 393.444 183.149 395.22 181.906 397.495C180.662 399.733 180.04 402.363 180.04 405.383C180.04 408.368 180.662 410.998 181.906 413.272C183.149 415.546 184.837 417.323 186.969 418.602C189.102 419.881 191.465 420.521 194.059 420.521Z" fill="#697289"/>
<path d="M153.668 389.393C157.186 389.393 160.224 390.032 162.783 391.311C165.341 392.591 167.314 394.438 168.699 396.855C170.085 399.236 170.778 402.078 170.778 405.383C170.778 408.688 170.085 411.531 168.699 413.911C167.314 416.292 165.341 418.14 162.783 419.455C160.224 420.734 157.186 421.374 153.668 421.374H142.315L142.208 419.775C144.696 419.775 146.775 419.775 148.445 419.775C150.15 419.775 151.447 419.775 152.336 419.775C153.224 419.775 153.668 419.775 153.668 419.775C157.79 419.775 161.024 418.495 163.369 415.937C165.75 413.343 166.94 409.825 166.94 405.383C166.94 400.941 165.75 397.441 163.369 394.883C161.024 392.289 157.79 390.992 153.668 390.992C153.668 390.992 153.206 390.992 152.282 390.992C151.359 390.992 150.008 390.992 148.232 390.992C146.455 390.992 144.269 390.992 141.675 390.992V389.393H153.668ZM143.061 389.393V421.374H139.597V389.393H143.061ZM139.703 417.909V421.374H135.865V420.841C135.865 420.841 135.972 420.841 136.185 420.841C136.434 420.841 136.558 420.841 136.558 420.841C137.411 420.841 138.122 420.556 138.69 419.988C139.259 419.384 139.561 418.691 139.597 417.909H139.703ZM139.703 392.857H139.597C139.561 392.004 139.241 391.311 138.637 390.778C138.069 390.21 137.358 389.926 136.505 389.926C136.505 389.926 136.399 389.926 136.185 389.926C135.972 389.926 135.865 389.926 135.865 389.926V389.393H139.703V392.857Z" fill="#697289"/>
<path d="M114.303 388.646C115.937 388.646 117.465 388.771 118.887 389.02C120.344 389.233 121.712 389.588 122.991 390.086C124.306 390.548 125.549 391.152 126.722 391.898L127.895 399.413H127.415C126.918 397.317 126.1 395.594 124.963 394.243C123.862 392.893 122.422 391.898 120.646 391.258C118.869 390.583 116.737 390.246 114.249 390.246C111.549 390.246 109.168 390.867 107.107 392.111C105.081 393.319 103.5 395.06 102.363 397.335C101.226 399.573 100.657 402.256 100.657 405.383C100.657 408.475 101.226 411.158 102.363 413.432C103.5 415.706 105.099 417.465 107.16 418.709C109.221 419.917 111.602 420.521 114.303 420.521C115.795 420.521 117.217 420.361 118.567 420.041C119.917 419.722 121.214 419.224 122.458 418.549C123.737 417.838 124.928 416.95 126.029 415.884L126.082 408.795C126.118 408.119 125.905 407.604 125.443 407.249C125.016 406.894 124.412 406.716 123.631 406.716H122.884V406.183H132.639V406.716H131.892C130.293 406.716 129.494 407.427 129.494 408.848V415.244C128.676 416.275 127.557 417.323 126.136 418.389C124.714 419.455 123.009 420.343 121.019 421.054C119.064 421.765 116.826 422.12 114.303 422.12C110.785 422.085 107.711 421.392 105.081 420.041C102.487 418.691 100.462 416.772 99.0051 414.285C97.5482 411.797 96.8197 408.83 96.8197 405.383C96.8197 401.901 97.5482 398.916 99.0051 396.429C100.462 393.941 102.505 392.022 105.135 390.672C107.764 389.322 110.82 388.646 114.303 388.646Z" fill="#697289"/>
<path d="M58.6335 388.594L88.1627 416.417L88.6958 422.121L59.1665 394.137L58.6335 388.594ZM58.7401 418.07V421.374H54.7424V420.841C54.7424 420.841 54.8846 420.841 55.1688 420.841C55.4887 420.841 55.6486 420.841 55.6486 420.841C56.4659 420.841 57.1588 420.575 57.7273 420.042C58.2959 419.509 58.5802 418.851 58.5802 418.07H58.7401ZM60.9788 418.07C60.9788 418.851 61.263 419.509 61.8316 420.042C62.4357 420.575 63.1286 420.841 63.9104 420.841C63.9104 420.841 64.0525 420.841 64.3368 420.841C64.6566 420.841 64.8165 420.841 64.8165 420.841V421.374H60.8188V418.07H60.9788ZM58.6335 388.594L60.9255 391.579L60.9788 421.374H58.5802V395.256C58.5802 393.444 58.4913 391.881 58.3137 390.566C58.1715 389.251 58.1005 388.594 58.1005 388.594H58.6335ZM88.6958 389.393V415.298C88.6958 416.435 88.7313 417.537 88.8024 418.603C88.8734 419.633 88.9445 420.486 89.0156 421.161C89.1222 421.801 89.1755 422.121 89.1755 422.121H88.6958L86.3505 419.296V389.393H88.6958ZM88.5359 392.698V389.393H92.5335V389.926C92.5335 389.926 92.3736 389.926 92.0538 389.926C91.7695 389.926 91.6274 389.926 91.6274 389.926C90.8456 389.926 90.1527 390.193 89.5486 390.726C88.98 391.259 88.6958 391.916 88.6958 392.698H88.5359ZM86.3505 392.698C86.3149 391.916 86.0129 391.259 85.4443 390.726C84.8758 390.193 84.1829 389.926 83.3656 389.926C83.3656 389.926 83.2057 389.926 82.8858 389.926C82.6016 389.926 82.4594 389.926 82.4594 389.926V389.393H86.4571V392.698H86.3505Z" fill="#697289"/>
<path d="M16.6869 403.518L30.5987 418.655C31.2028 419.366 31.8424 419.899 32.5176 420.254C33.1928 420.61 34.0989 420.805 35.236 420.841V421.374H33.2638C32.8374 421.374 32.3044 421.356 31.6648 421.32C31.0607 421.249 30.3855 421.125 29.6393 420.947C28.9286 420.734 28.2001 420.432 27.4539 420.041C26.7432 419.615 26.0681 419.046 25.4284 418.336C25.4284 418.336 25.1442 418.033 24.5756 417.429C24.0426 416.79 23.3319 415.99 22.4435 415.031C21.5552 414.036 20.5957 413.005 19.5652 411.939C18.5703 410.838 17.6286 409.807 16.7402 408.848C15.8519 407.853 15.1234 407.053 14.5549 406.449C13.9863 405.81 13.702 405.49 13.702 405.49L16.6869 403.518ZM30.9185 389.766L16.2072 405.49H13.702L27.0808 389.766H30.9185ZM34.3832 389.393V389.926H34.17C33.0684 389.926 32.0379 390.103 31.0785 390.459C30.1546 390.814 29.3906 391.347 28.7865 392.058L25.1619 392.004C25.5528 391.507 25.6061 391.045 25.3218 390.619C25.0731 390.157 24.6289 389.926 23.9893 389.926H23.5096V389.393H34.17H34.3832Z" fill="#697289"/>
<path d="M267.247 436.28L263.915 438.129L263.915 417.788C263.915 415.221 264.128 412.658 264.553 410.127L264.69 409.311C264.702 409.241 264.804 409.245 264.81 409.316L264.95 411.023C265.105 412.901 265.919 414.664 267.247 415.999V415.999L267.247 436.28Z" fill="#697289"/>
<path d="M155.466 317.279V349.26H152.055V317.279H155.466ZM169.805 347.607L169.698 349.26H155.36V347.607H169.805ZM184.534 332.043V333.642L155.36 334.069V332.47L184.534 332.043ZM169.751 317.279V318.931H155.36V317.279H169.751ZM172.79 341.638L169.858 349.26H161.756L163.568 347.607C165.345 347.607 166.766 347.359 167.832 346.861C168.934 346.328 169.822 345.617 170.498 344.729C171.173 343.805 171.759 342.775 172.257 341.638H172.79ZM184.534 333.536V336.574H183.947V335.881C183.947 335.277 183.77 334.762 183.414 334.335C183.059 333.873 182.508 333.642 181.762 333.642V333.536H184.534ZM184.534 329.112V332.15H181.762V332.043C182.508 332.043 183.059 331.83 183.414 331.404C183.77 330.942 183.947 330.409 183.947 329.805V329.112H184.534ZM169.751 318.771V322.449H169.165V321.649C169.165 320.903 168.916 320.264 168.419 319.731C167.957 319.197 167.317 318.931 166.5 318.931V318.771H169.751ZM169.751 316.426V317.812L163.675 317.279C164.776 317.279 165.949 317.19 167.193 317.012C168.437 316.799 169.289 316.603 169.751 316.426ZM152.162 345.848L152.855 349.26H148.217V348.727C148.217 348.727 148.342 348.727 148.59 348.727C148.839 348.727 148.964 348.727 148.964 348.727C149.852 348.727 150.58 348.442 151.149 347.874C151.718 347.305 152.02 346.63 152.055 345.848H152.162ZM152.162 320.637H152.055C152.02 319.819 151.718 319.144 151.149 318.611C150.58 318.078 149.852 317.812 148.964 317.812C148.964 317.812 148.839 317.812 148.59 317.812C148.342 317.812 148.217 317.812 148.217 317.812V317.279H152.855L152.162 320.637Z" fill="#697289"/>
<path d="M126.889 317.279V349.26H123.478V317.279H126.889ZM141.228 347.607L141.121 349.26H126.783V347.607H141.228ZM138.722 332.47V334.069H126.783V332.47H138.722ZM141.174 317.279V318.931H126.783V317.279H141.174ZM144.213 341.638L141.281 349.26H133.179L134.991 347.607C136.768 347.607 138.189 347.359 139.255 346.861C140.357 346.328 141.245 345.617 141.921 344.729C142.596 343.805 143.182 342.775 143.68 341.638H144.213ZM138.722 333.962V337H138.136V336.307C138.136 335.703 137.958 335.188 137.603 334.762C137.248 334.3 136.697 334.069 135.951 334.069V333.962H138.722ZM138.722 329.538V332.576H135.951V332.47C136.697 332.47 137.248 332.256 137.603 331.83C137.958 331.368 138.136 330.835 138.136 330.231V329.538H138.722ZM141.174 318.771V322.449H140.588V321.649C140.588 320.903 140.339 320.264 139.842 319.731C139.38 319.197 138.74 318.931 137.923 318.931V318.771H141.174ZM141.174 316.426V317.812L135.098 317.279C136.2 317.279 137.372 317.19 138.616 317.012C139.86 316.799 140.712 316.603 141.174 316.426ZM123.585 345.848L124.278 349.26H119.64V348.727C119.64 348.727 119.765 348.727 120.013 348.727C120.262 348.727 120.387 348.727 120.387 348.727C121.275 348.727 122.003 348.442 122.572 347.874C123.141 347.305 123.443 346.63 123.478 345.848H123.585ZM123.585 320.637H123.478C123.443 319.819 123.141 319.144 122.572 318.611C122.003 318.078 121.275 317.812 120.387 317.812C120.387 317.812 120.262 317.812 120.013 317.812C119.765 317.812 119.64 317.812 119.64 317.812V317.279H124.278L123.585 320.637Z" fill="#697289"/>
<path d="M92.7254 317.277H99.6013C101.271 317.277 102.764 317.473 104.079 317.864C105.429 318.255 106.566 318.823 107.49 319.569C108.449 320.316 109.178 321.222 109.675 322.288C110.173 323.354 110.422 324.562 110.422 325.912C110.422 327.405 110.066 328.791 109.356 330.07C108.645 331.349 107.65 332.397 106.371 333.215C105.127 334.032 103.706 334.529 102.107 334.707C102.711 334.956 103.404 335.507 104.185 336.359C105.003 337.212 105.696 338.047 106.264 338.865C106.264 338.865 106.495 339.184 106.957 339.824C107.419 340.428 108.005 341.192 108.716 342.116C109.462 343.004 110.191 343.857 110.901 344.675C111.648 345.492 112.323 346.203 112.927 346.807C113.566 347.411 114.242 347.89 114.952 348.246C115.698 348.566 116.551 348.725 117.511 348.725V349.258H115.858C113.904 349.258 112.287 349.01 111.008 348.512C109.764 348.015 108.751 347.411 107.97 346.7C107.188 345.954 106.513 345.243 105.944 344.568C105.802 344.39 105.465 343.946 104.932 343.235C104.434 342.489 103.883 341.69 103.279 340.837C102.675 339.984 102.124 339.22 101.627 338.545C101.129 337.834 100.827 337.408 100.721 337.266C100.01 336.342 99.1927 335.524 98.2688 334.814C97.3449 334.067 96.3677 333.694 95.3372 333.694V333.161C95.3372 333.161 95.6214 333.179 96.19 333.215C96.7585 333.215 97.487 333.197 98.3754 333.161C99.3703 333.126 100.365 333.055 101.36 332.948C102.355 332.806 103.279 332.415 104.132 331.775C105.02 331.136 105.713 330.07 106.211 328.577C106.353 328.186 106.459 327.725 106.531 327.191C106.602 326.658 106.619 326.108 106.584 325.539C106.548 324.544 106.353 323.656 105.998 322.874C105.678 322.092 105.198 321.417 104.558 320.849C103.954 320.28 103.226 319.836 102.373 319.516C101.52 319.196 100.561 319.019 99.4947 318.983C97.8246 318.912 96.3677 318.894 95.124 318.93C93.8802 318.965 93.2584 318.965 93.2584 318.93C93.2584 318.894 93.2051 318.752 93.0985 318.503C93.0274 318.219 92.9386 317.952 92.832 317.704C92.7609 317.419 92.7254 317.277 92.7254 317.277ZM93.365 317.277V349.258H89.9537V317.277H93.365ZM90.1136 345.847L90.7532 349.258H86.2225V348.725C86.2225 348.725 86.3469 348.725 86.5956 348.725C86.8444 348.725 86.9688 348.725 86.9688 348.725C87.8216 348.725 88.5323 348.441 89.1008 347.873C89.6694 347.304 89.9714 346.629 90.007 345.847H90.1136ZM90.1136 320.635H90.007C89.9714 319.818 89.6694 319.143 89.1008 318.61C88.5323 318.077 87.8216 317.81 86.9688 317.81C86.9688 317.81 86.8444 317.81 86.5956 317.81C86.3469 317.81 86.2225 317.81 86.2225 317.81V317.277H90.7532L90.1136 320.635ZM93.2051 345.847H93.365C93.4005 346.629 93.7026 347.304 94.2711 347.873C94.8397 348.441 95.5504 348.725 96.4032 348.725C96.4032 348.725 96.5098 348.725 96.723 348.725C96.9717 348.725 97.0961 348.725 97.0961 348.725L97.1494 349.258H92.5655L93.2051 345.847Z" fill="#697289"/>
<path d="M76.6765 317.277V349.258H73.2652V317.277H76.6765ZM53.5968 317.277V349.258H50.1855V317.277H53.5968ZM73.7982 332.682V334.281H53.0105V332.682H73.7982ZM50.3454 345.847V349.258H46.4543V348.725C46.4543 348.725 46.5609 348.725 46.7742 348.725C46.9874 348.725 47.094 348.725 47.094 348.725C47.9468 348.725 48.6575 348.441 49.226 347.873C49.8301 347.304 50.1499 346.629 50.1855 345.847H50.3454ZM53.4369 345.847H53.5968C53.5968 346.629 53.8988 347.304 54.5029 347.873C55.107 348.441 55.8355 348.725 56.6883 348.725C56.6883 348.725 56.7949 348.725 57.0081 348.725C57.2213 348.725 57.3279 348.725 57.3279 348.725V349.258H53.4369V345.847ZM53.4369 320.689V317.277H57.3279V317.81C57.3279 317.81 57.2213 317.81 57.0081 317.81C56.7949 317.81 56.6883 317.81 56.6883 317.81C55.8355 317.81 55.107 318.095 54.5029 318.663C53.8988 319.196 53.5968 319.871 53.5968 320.689H53.4369ZM50.3454 320.689H50.1855C50.1499 319.871 49.8301 319.196 49.226 318.663C48.6575 318.095 47.9468 317.81 47.094 317.81C47.094 317.81 46.9874 317.81 46.7742 317.81C46.5609 317.81 46.4543 317.81 46.4543 317.81V317.277H50.3454V320.689ZM73.4251 345.847V349.258H69.5341V348.725C69.5341 348.725 69.6407 348.725 69.8539 348.725C70.0671 348.725 70.1737 348.725 70.1737 348.725C71.0265 348.725 71.7372 348.441 72.3058 347.873C72.9099 347.304 73.2297 346.629 73.2652 345.847H73.4251ZM76.5166 345.847H76.6765C76.7121 346.629 77.0141 347.304 77.5827 347.873C78.1868 348.441 78.9152 348.725 79.768 348.725C79.768 348.725 79.8746 348.725 80.0879 348.725C80.3011 348.725 80.4077 348.725 80.4077 348.725V349.258H76.5166V345.847ZM76.5166 320.689V317.277H80.4077V317.81C80.4077 317.81 80.3011 317.81 80.0879 317.81C79.8746 317.81 79.768 317.81 79.768 317.81C78.9152 317.81 78.1868 318.095 77.5827 318.663C77.0141 319.196 76.7121 319.871 76.6765 320.689H76.5166ZM73.4251 320.689H73.2652C73.2297 319.871 72.9099 319.196 72.3058 318.663C71.7372 318.095 71.0265 317.81 70.1737 317.81C70.1737 317.81 70.0671 317.81 69.8539 317.81C69.6407 317.81 69.5341 317.81 69.5341 317.81V317.277H73.4251V320.689Z" fill="#697289"/>
<path d="M25.4716 307.075L28.8041 305.227V325.568C28.8041 328.135 28.5906 330.697 28.1659 333.229L28.0291 334.044C28.0173 334.115 27.9152 334.11 27.9094 334.039L27.7689 332.333C27.6142 330.455 26.8005 328.692 25.4716 327.356V327.356V307.075Z" fill="#697289"/>
<path d="M25.4716 303.65L28.8041 291.918L28.8041 334.429C28.8041 336.995 28.5906 339.558 28.1659 342.089L28.0291 342.905C28.0173 342.975 27.9152 342.971 27.9094 342.9L27.7689 341.194C27.6142 339.316 26.8005 337.553 25.4716 336.217V336.217L25.4716 303.65Z" fill="#697289"/>
<path d="M42.5688 311.893V313.492H27.1379H11.707V311.893H42.5688ZM42.5688 313.332V317.65L42.0358 317.596V316.69C42.0358 315.802 41.716 315.056 41.0764 314.452C40.4723 313.847 39.7438 313.528 38.891 313.492V313.332H42.5688ZM42.5688 310.934V312.479L36.066 311.893C36.8478 311.893 37.6651 311.84 38.5179 311.733C39.4063 311.627 40.2236 311.502 40.9698 311.36C41.716 311.218 42.249 311.076 42.5688 310.934ZM15.3849 313.332V313.492C14.4965 313.528 13.7503 313.847 13.1462 314.452C12.5421 315.056 12.2401 315.802 12.2401 316.69V317.596L11.707 317.65V313.332H15.3849ZM11.707 310.934C12.0624 311.076 12.5954 311.218 13.3061 311.36C14.0523 311.502 14.8696 311.627 15.758 311.733C16.6463 311.84 17.4636 311.893 18.2099 311.893L11.707 312.479V310.934Z" fill="#697289"/>
<path d="M42.2599 388.596L45.5924 388.596L45.5924 441.288C45.5924 443.855 45.379 446.417 44.9543 448.949L44.8174 449.764C44.8056 449.835 44.7036 449.83 44.6977 449.759L44.5572 448.053C44.4025 446.175 43.5888 444.412 42.2599 443.076V443.076L42.2599 388.596Z" fill="#697289"/>
<path d="M43.7661 403.362H45.5923V405.011H41.1247C39.9657 405.011 39.1348 405.735 38.6196 406.502C38.1064 407.267 38.0381 408.22 38.0381 409.141H37.5225V402.408C37.9424 402.828 41.8967 403.215 43.7661 403.362Z" fill="#697289"/>
<path d="M43.3838 403.362H41.5576V405.011H46.0252C47.1842 405.011 48.0151 405.735 48.5303 406.502C49.0435 407.267 49.1118 408.22 49.1118 409.141H49.6274V402.408C49.2075 402.828 45.2532 403.215 43.3838 403.362Z" fill="#697289"/>
<path d="M6.30292 411.798L0.898926 406.394L6.30292 400.99L11.7069 406.394L6.30292 411.798Z" fill="#FF3939"/>
<path d="M8.28761 401.308L8.28755 391.511C8.25322 390.878 7.98701 389.999 7.23159 389.394C6.91037 389.137 6.49658 388.925 5.97736 388.8C5.53134 388.692 4.54489 388.728 4.39518 388.74L4.39518 388.744C4.36857 388.744 4.3706 388.742 4.39518 388.74L4.39527 388.178L9.42691 388.178L9.42697 402.567L8.28761 401.308Z" fill="#697289"/>
<path d="M8.28761 411.811L8.28755 418.038C8.25322 418.67 7.98701 419.55 7.23159 420.154C6.91037 420.411 6.49658 420.624 5.97736 420.749C5.53134 420.857 4.54489 420.821 4.39518 420.809L4.39518 420.805C4.36857 420.805 4.3706 420.807 4.39518 420.809L4.39527 421.371L9.42691 421.371L9.42697 410.553L8.28761 411.811Z" fill="#697289"/>
<path d="M11.6434 404.605L11.6435 391.511C11.6778 390.878 11.944 389.999 12.6994 389.394C13.0207 389.137 13.4344 388.925 13.9537 388.8C14.3997 388.692 15.3861 388.728 15.5359 388.74L15.5359 388.744C15.5625 388.744 15.5604 388.742 15.5359 388.74L15.5358 388.178L10.5041 388.178L10.5041 403.526L11.6434 404.605Z" fill="#697289"/>
<path d="M11.6434 408.548L11.6435 418.022C11.6778 418.655 11.944 419.534 12.6994 420.139C13.0207 420.396 13.4344 420.608 13.9537 420.734C14.3997 420.841 15.3861 420.805 15.5359 420.793L15.5359 420.79C15.5625 420.79 15.5604 420.791 15.5359 420.793L15.5358 421.355L10.5041 421.355L10.504 409.627L11.6434 408.548Z" fill="#697289"/>
</svg>
